<svg width="1500" height="856" viewBox="0 0 1500 856" fill="none" xmlns="http://www.w3.org/2000/svg">
<path d="M1393.36 327.083C1406.35 330.138 1413.23 320.971 1410.94 303.4L1374.27 85.672C1371.21 65.0451 1355.17 41.3626 1339.89 35.2509C1301.53 19.2274 1261.18 8.43513 1219.95 3.16454C1213.07 2.40058 1209.25 8.51216 1210.01 16.9157L1217.65 74.2126C1219.18 84.908 1212.31 92.5477 1203.9 91.0198C1199.56 89.6736 1195.72 87.0664 1192.86 83.5294C1190 79.9924 1188.26 75.6853 1187.86 71.1566C1185.57 48.2378 1184.04 37.5427 1180.98 14.6239C1180.85 11.0714 1179.47 7.67823 1177.1 5.02874C1174.73 2.37926 1171.51 0.639124 1168 0.108521C872.344 8.51206 627.114 211.725 332.226 220.128C329.051 220.049 325.947 221.071 323.44 223.021C320.934 224.97 319.179 227.728 318.475 230.824C315.419 249.159 314.655 258.327 311.599 275.898C310.862 279.739 308.748 283.179 305.652 285.571C302.557 287.963 298.695 289.141 294.792 288.885C292.915 288.792 291.077 288.316 289.391 287.486C287.706 286.655 286.208 285.488 284.991 284.056C283.774 282.625 282.863 280.958 282.315 279.161C281.767 277.363 281.593 275.473 281.804 273.606L289.444 229.296C289.776 227.834 289.796 226.319 289.505 224.849C289.213 223.379 288.616 221.986 287.752 220.762C286.887 219.537 285.775 218.508 284.487 217.741C283.2 216.974 281.765 216.486 280.277 216.309C238.739 211.755 198.081 201.205 159.571 184.987C144.292 178.111 129.013 182.695 125.193 197.21C112.97 245.339 100.746 293.469 89.2869 341.598C86.2311 353.821 93.1066 369.101 106.094 379.032C139.708 405.007 176.378 450.08 165.683 495.918C154.987 541.755 108.386 556.271 67.1322 541.755C51.853 536.408 39.6297 539.464 36.5739 550.923C24.3505 599.816 12.1271 647.946 0.66771 696.075C-3.15208 709.826 9.83531 731.981 28.9343 744.204C75.0004 772.527 124.23 795.346 175.614 812.196C183.254 814.488 190.893 811.433 191.657 805.321L199.297 761.775C199.643 759.863 200.391 758.045 201.491 756.442C202.591 754.84 204.018 753.489 205.678 752.478C207.339 751.467 209.195 750.82 211.123 750.579C213.052 750.338 215.01 750.509 216.868 751.08C219.176 751.178 221.442 751.731 223.537 752.706C225.631 753.681 227.513 755.059 229.074 756.762C230.635 758.465 231.845 760.459 232.635 762.63C233.424 764.801 233.778 767.107 233.675 769.415C230.619 787.75 229.855 796.154 226.799 814.489C226.756 817.972 227.966 821.355 230.211 824.02C232.455 826.685 235.583 828.454 239.023 829.003C585.096 890.12 914.362 703.715 1260.44 764.831C1262.07 765.521 1263.87 765.722 1265.61 765.41C1267.36 765.098 1268.98 764.286 1270.27 763.073C1271.56 761.86 1272.48 760.299 1272.9 758.577C1273.33 756.855 1273.24 755.047 1272.66 753.372C1270.37 731.217 1268.84 719.758 1265.78 696.839C1265.02 687.671 1270.37 680.795 1278.77 682.323C1284.25 683.51 1289.23 686.341 1293.05 690.437C1296.87 694.533 1299.35 699.698 1300.16 705.242L1307.8 762.539C1308.66 766.813 1310.58 770.803 1313.38 774.141C1316.18 777.478 1319.78 780.056 1323.84 781.638C1375.1 798.81 1424.29 821.613 1470.52 849.63C1489.62 861.854 1502.61 855.742 1499.55 835.115L1462.88 617.387C1458.68 597.397 1447.93 579.383 1432.33 566.202C1384.96 527.24 1342.94 471.471 1333.78 410.354C1327.66 372.156 1343.71 315.623 1393.36 327.083ZM248.954 670.864C248.53 672.894 247.675 674.811 246.448 676.483C245.22 678.155 243.648 679.544 241.839 680.558C240.029 681.572 238.023 682.185 235.955 682.358C233.888 682.531 231.808 682.259 229.855 681.56C225.669 680.81 221.922 678.502 219.37 675.1C216.818 671.697 215.651 667.453 216.104 663.224L232.147 566.202C232.675 564.231 233.593 562.386 234.845 560.775C236.098 559.165 237.66 557.822 239.44 556.825C241.22 555.828 243.182 555.198 245.21 554.972C247.237 554.745 249.29 554.927 251.246 555.506C255.228 556.074 258.851 558.117 261.398 561.23C263.945 564.342 265.229 568.298 264.997 572.314L248.954 670.864ZM280.277 473.763C279.915 475.69 279.168 477.523 278.078 479.153C276.989 480.783 275.581 482.175 273.939 483.246C272.297 484.317 270.455 485.044 268.525 485.384C266.594 485.724 264.614 485.668 262.705 485.222C260.695 485.031 258.743 484.444 256.961 483.494C255.179 482.544 253.603 481.25 252.324 479.687C251.046 478.124 250.089 476.323 249.511 474.389C248.933 472.454 248.743 470.423 248.954 468.415C254.302 436.329 259.65 403.479 265.761 371.393C266.505 367.46 268.763 363.976 272.049 361.69C275.335 359.404 279.386 358.499 283.332 359.169C285.184 359.249 286.998 359.724 288.651 360.563C290.304 361.401 291.758 362.584 292.916 364.031C294.074 365.479 294.908 367.157 295.364 368.954C295.819 370.751 295.885 372.624 295.556 374.448C290.972 407.298 285.624 440.913 280.277 473.763ZM740.18 306.456C743.999 281.246 746.291 268.258 750.111 243.047C753.167 265.966 755.459 277.425 759.278 300.344C793.657 292.705 811.228 288.885 846.37 282.773L759.278 320.971C755.459 346.946 753.931 359.169 750.111 384.38C745.527 361.461 743.999 350.001 740.18 327.083L653.088 345.418L740.18 306.456ZM1085.49 244.575L1119.87 606.692C1077.71 606.827 1035.61 609.634 993.814 615.095L977.771 359.169C935.753 437.857 892.971 515.781 847.134 592.176C836.617 610.052 822.605 625.624 805.935 637.962C789.265 650.301 770.279 659.153 750.111 663.989C731.805 668.581 712.648 668.581 694.342 663.989C678.03 660.222 663.324 651.399 652.324 638.778C606.996 586.829 563.451 534.116 521.688 480.639L505.644 712.882C463.846 718.343 421.744 721.15 379.591 721.286L413.969 412.646L466.682 405.771L421.609 340.834C458.279 335.487 494.185 328.611 530.091 320.207C547.662 316.388 562.941 320.207 572.109 331.667C629.406 403.479 688.994 472.999 750.111 542.519C812.756 436.583 871.835 328.102 927.349 217.073C931.281 208.366 937.085 200.633 944.347 194.426C951.61 188.22 960.153 183.692 969.367 181.167C1006.04 172.763 1041.18 165.888 1077.85 160.54C1063.33 191.098 1048.05 220.893 1033.54 251.451C1050.69 248.036 1068.04 245.739 1085.49 244.575ZM1284.12 579.189C1284.88 589.12 1278.77 595.232 1269.6 592.941C1264.62 591.738 1260.13 589.046 1256.72 585.225C1253.3 581.404 1251.14 576.633 1250.5 571.549L1234.46 446.26C1233.7 437.093 1239.81 429.453 1248.98 431.745C1253.77 433.169 1258.04 435.944 1261.3 439.739C1264.55 443.533 1266.64 448.184 1267.31 453.136C1272.66 495.154 1278.01 537.171 1284.12 579.189ZM1250.5 326.319C1252.03 337.014 1245.92 343.126 1237.52 341.598C1232.75 340.658 1228.4 338.228 1225.11 334.657C1221.81 331.087 1219.74 326.562 1219.18 321.735C1213.83 279.718 1208.49 238.464 1203.9 196.446C1203.43 194.505 1203.41 192.483 1203.85 190.534C1204.29 188.586 1205.17 186.765 1206.43 185.213C1207.69 183.661 1209.28 182.42 1211.1 181.585C1212.91 180.751 1214.89 180.347 1216.89 180.403C1221.52 181.484 1225.69 183.976 1228.84 187.535C1231.99 191.093 1233.95 195.542 1234.46 200.266L1250.5 326.319Z" fill="white"/>
</svg>
